<svg width="20" height="21" viewBox="0 0 20 21" fill="none" xmlns="http://www.w3.org/2000/svg">
<g clip-path="url(#clip0_69_3164)">
<path d="M5.00352 18.3877C4.69242 18.3877 4.45684 18.1066 4.51121 17.8003L4.99862 15.0544H2.26038C1.94977 15.0544 1.71433 14.7741 1.76787 14.4682L1.88454 13.8015C1.92641 13.5623 2.13416 13.3877 2.37705 13.3877H5.29029L6.17362 8.3877H3.43538C3.12477 8.3877 2.88933 8.10747 2.94287 7.80151L3.05954 7.13484C3.10141 6.89559 3.30916 6.72103 3.55205 6.72103H6.46529L6.98371 3.80032C7.02608 3.56161 7.23359 3.3877 7.47602 3.3877H8.12705C8.43816 3.3877 8.67373 3.66877 8.61936 3.97508L8.13195 6.72103H13.1319L13.6503 3.80032C13.6927 3.56161 13.9002 3.3877 14.1426 3.3877H14.7937C15.1048 3.3877 15.3404 3.66877 15.286 3.97508L14.7986 6.72103H17.5368C17.8474 6.72103 18.0829 7.00126 18.0293 7.30722L17.9127 7.97389C17.8708 8.21314 17.663 8.3877 17.4201 8.3877H14.5069L14.2419 9.8877H12.5756L12.8406 8.3877H7.84065L6.95732 13.3877H8.99859V15.0544H6.66529L6.14686 17.9751C6.10449 18.2138 5.89699 18.3877 5.65455 18.3877H5.00352Z" fill="#80848E"/>
<path fill-rule="evenodd" clip-rule="evenodd" d="M10.3999 14.8877C10.3999 12.8995 12.0117 11.2877 13.9999 11.2877C15.9882 11.2877 17.5999 12.8995 17.5999 14.8877C17.5999 15.6652 17.3535 16.3852 16.9344 16.9736L18.9242 18.9635C19.1585 19.1978 19.1585 19.5777 18.9242 19.812C18.6899 20.0463 18.31 20.0463 18.0757 19.812L16.0858 17.8222C15.4974 18.2413 14.7774 18.4877 13.9999 18.4877C12.0117 18.4877 10.3999 16.876 10.3999 14.8877ZM13.9999 12.4877C12.6744 12.4877 11.5999 13.5622 11.5999 14.8877C11.5999 16.2132 12.6744 17.2877 13.9999 17.2877C15.3254 17.2877 16.3999 16.2132 16.3999 14.8877C16.3999 13.5622 15.3254 12.4877 13.9999 12.4877Z" fill="#80848E"/>
</g>
<defs>
<clipPath id="clip0_69_3164">
<rect width="20" height="20" fill="white" transform="translate(0 0.887695)"/>
</clipPath>
</defs>
</svg>
