<svg width="37" height="34" viewBox="0 0 37 34" fill="none" xmlns="http://www.w3.org/2000/svg">
<path fill-rule="evenodd" clip-rule="evenodd" d="M7.295 33.5C6.98388 33.5 6.74831 33.2189 6.80268 32.9126L8.0001 26.1667H1.26185C0.951238 26.1667 0.715798 25.8864 0.769338 25.5805L1.236 22.9138C1.27787 22.6746 1.48563 22.5 1.72852 22.5H8.6418L10.5851 11.5H3.84685C3.53624 11.5 3.3008 11.2198 3.35434 10.9138L3.821 8.2471C3.86287 8.0079 4.07063 7.8333 4.31352 7.8333H11.2268L12.4552 0.91262C12.4976 0.67391 12.7051 0.5 12.9475 0.5H15.5985C15.9096 0.5 16.1452 0.78107 16.0908 1.08738L14.8934 7.8333H25.8934L27.1218 0.91262C27.1642 0.67391 27.3717 0.5 27.6142 0.5H30.2652C30.5763 0.5 30.8119 0.78107 30.7575 1.08738L29.5601 7.8333H36.2983C36.6089 7.8333 36.8444 8.1136 36.7908 8.4195L36.3242 11.0862C36.2823 11.3254 36.0745 11.5 35.8317 11.5H28.9184L26.9751 22.5H33.7133C34.0239 22.5 34.2594 22.7802 34.2058 23.0862L33.7392 25.7529C33.6973 25.9921 33.4895 26.1667 33.2467 26.1667H26.3334L25.105 33.0874C25.0626 33.3261 24.8551 33.5 24.6127 33.5H21.9617C21.6506 33.5 21.415 33.2189 21.4693 32.9126L22.6668 26.1667H11.6668L10.4383 33.0874C10.396 33.3261 10.1885 33.5 9.946 33.5H7.295ZM14.2526 11.5L12.3092 22.5H23.3092L25.2526 11.5H14.2526Z" fill="white"/>
</svg>
