<svg width="13" height="12" viewBox="0 0 13 12" fill="none" xmlns="http://www.w3.org/2000/svg">
<path d="M2.51868 11.9988C2.31203 11.9988 2.15554 11.8114 2.19166 11.6073L2.59404 9.33267H0.332232C0.125894 9.33267 -0.0305044 9.14591 0.00506112 8.94196L0.12131 8.27543C0.149123 8.116 0.287134 7.99963 0.448481 7.99963H2.82654L3.53067 4.00048H1.26887C1.06253 4.00048 0.90613 3.8137 0.941696 3.60978L1.05794 2.94325C1.08576 2.78379 1.22377 2.66744 1.38512 2.66744H3.76317L4.18616 0.276364C4.2143 0.117258 4.35214 0.00134277 4.51318 0.00134277H5.16708C5.37371 0.00134277 5.53022 0.188683 5.49408 0.392845L5.09173 2.66744H9.0774L9.50042 0.276364C9.52852 0.117258 9.66636 0.00134277 9.82744 0.00134277H10.4813C10.688 0.00134277 10.8445 0.188683 10.8083 0.392845L10.406 2.66744H12.6678C12.8741 2.66744 13.0305 2.85422 12.9949 3.05815L12.8787 3.72467C12.8509 3.88414 12.7129 4.00048 12.5515 4.00048H10.1735L9.46933 7.99963H11.7311C11.9375 7.99963 12.0939 8.18639 12.0583 8.39034L11.942 9.05687C11.9143 9.2163 11.7762 9.33267 11.6149 9.33267H9.23683L8.81382 11.7238C8.78572 11.8829 8.64788 11.9988 8.48679 11.9988H7.83294C7.62629 11.9988 7.46978 11.8114 7.50592 11.6073L7.90827 9.33267H3.9226L3.49961 11.7238C3.47147 11.8829 3.33362 11.9988 3.17258 11.9988H2.51868ZM4.85953 4.00048L4.15539 7.99963H8.14104L8.84517 4.00048H4.85953Z" fill="#72767D"/>
</svg>
